<?xml version="1.0" encoding="UTF-8" standalone="no"?>
<!DOCTYPE svg PUBLIC "-//W3C//DTD SVG 1.1//EN" "http://www.w3.org/Graphics/SVG/1.1/DTD/svg11.dtd">
<svg width="100%" height="100%" viewBox="0 0 512 512" version="1.1" xmlns="http://www.w3.org/2000/svg" xmlns:xlink="http://www.w3.org/1999/xlink" xml:space="preserve" xmlns:serif="http://www.serif.com/" style="fill-rule:evenodd;clip-rule:evenodd;stroke-linejoin:round;stroke-miterlimit:2;">
    <g transform="matrix(4.19775,0,0,4.16667,0,0)">
        <path d="M33.78,16.67C32.89,16.16 32.59,15.03 33.1,14.14C33.61,13.25 34.74,12.95 35.63,13.46L39.76,15.84C40.65,16.35 40.95,17.48 40.44,18.37C39.93,19.26 38.8,19.56 37.91,19.05L33.78,16.67ZM71.99,41.8L72.87,50.65L89.37,50.65L87.75,41.8L71.99,41.8ZM92.06,41.8L93.68,50.65L106.6,50.65L104.16,41.8L92.06,41.8ZM107.77,54.91L94.46,54.91L95.71,61.76L109.66,61.76L107.77,54.91ZM110.84,66.04L96.5,66.04L97.75,72.89L112.72,72.89L110.84,66.04ZM113.9,77.15L98.53,77.15L100.87,89.94L117.42,89.94L113.9,77.15ZM96.55,89.94L94.21,77.15L75.49,77.15L76.76,89.94L96.55,89.94ZM72.48,89.94L71.21,77.15L48.07,77.15L46.32,89.94L72.48,89.94ZM42.04,89.94L43.79,77.15L26.11,77.15L23.14,89.94L42.04,89.94ZM18.78,89.94L21.75,77.15L8.07,77.15L4.55,89.94L18.78,89.94ZM9.25,72.89L22.74,72.89L24.33,66.04L11.13,66.04L9.25,72.89ZM12.31,61.76L25.31,61.76L26.9,54.91L14.2,54.91L12.31,61.76ZM15.37,50.65L27.89,50.65L29.95,41.8L17.81,41.8L15.37,50.65ZM34.31,41.8L32.25,50.65L47.4,50.65L48.61,41.8L34.31,41.8ZM52.88,41.8C52.88,41.88 52.87,41.95 52.86,42.03L51.68,50.65L68.6,50.65L67.72,41.8L52.88,41.8ZM118.36,94.2L65.48,94.2L65.48,113.89L81.77,113.89L81.77,122.88L40.2,122.88L40.2,113.89L56.49,113.89L56.49,94.2L3.61,94.2C3.3,94.2 2.97,94.15 2.64,94.06C1.99,93.88 1.38,93.53 0.93,93.06C0.36,92.47 0,91.71 0,90.85C0,90.6 0.04,90.33 0.12,90.05L13.75,40.56C13.96,39.81 14.31,39.08 14.86,38.53C15.47,37.92 16.26,37.54 17.25,37.54L43.77,37.54C42.25,35.03 41.37,32.09 41.37,28.94C41.37,24.36 43.23,20.21 46.23,17.2C49.23,14.2 53.38,12.34 57.97,12.34C62.56,12.34 66.7,14.2 69.71,17.2C72.71,20.2 74.57,24.35 74.57,28.94C74.57,32.09 73.69,35.03 72.17,37.54L104.73,37.54C105.63,37.54 106.36,37.86 106.94,38.38C107,38.43 107.06,38.48 107.11,38.53C107.66,39.08 108.01,39.81 108.22,40.56L121.86,90.06C121.94,90.35 121.98,90.61 121.98,90.85C121.98,91.71 121.62,92.47 121.05,93.05C120.6,93.52 119.98,93.87 119.34,94.05C119,94.15 118.67,94.2 118.36,94.2ZM73.28,54.91L73.96,61.76L91.4,61.76L90.15,54.91L73.28,54.91ZM31.27,54.91L29.68,61.76L45.88,61.76L46.81,54.91L31.27,54.91ZM51.1,54.91L50.17,61.76L69.7,61.76L69.02,54.91L51.1,54.91ZM74.39,66.04L75.07,72.89L93.44,72.89L92.19,66.04L74.39,66.04ZM28.69,66.04L27.1,72.89L44.37,72.89L45.3,66.04L28.69,66.04ZM49.58,66.04L48.65,72.89L70.8,72.89L70.12,66.04L49.58,66.04ZM43.15,6.23C42.64,5.34 42.94,4.21 43.83,3.7C44.72,3.19 45.85,3.49 46.36,4.38L48.74,8.5C49.25,9.39 48.95,10.52 48.07,11.03C47.18,11.54 46.05,11.24 45.54,10.35L43.15,6.23ZM56.48,1.86C56.48,0.83 57.31,0 58.34,0C59.37,0 60.2,0.83 60.2,1.86L60.2,6.62C60.2,7.65 59.37,8.48 58.34,8.48C57.31,8.48 56.48,7.65 56.48,6.62L56.48,1.86ZM70.23,4.76C70.74,3.87 71.87,3.57 72.76,4.08C73.65,4.59 73.95,5.72 73.44,6.61L71.06,10.74C70.55,11.63 69.42,11.93 68.53,11.42C67.64,10.91 67.34,9.78 67.85,8.89L70.23,4.76ZM80.67,14.13C81.56,13.62 82.69,13.92 83.2,14.81C83.71,15.7 83.41,16.83 82.52,17.34L78.4,19.72C77.51,20.23 76.38,19.93 75.87,19.05C75.36,18.16 75.66,17.03 76.55,16.52L80.67,14.13ZM85.04,27.46C86.07,27.46 86.9,28.29 86.9,29.32C86.9,30.35 86.07,31.18 85.04,31.18L80.28,31.18C79.25,31.18 78.42,30.35 78.42,29.32C78.42,28.29 79.25,27.46 80.28,27.46L85.04,27.46ZM30.88,30.42C29.85,30.42 29.02,29.59 29.02,28.56C29.02,27.53 29.85,26.7 30.88,26.7L35.64,26.7C36.67,26.7 37.5,27.53 37.5,28.56C37.5,29.59 36.67,30.42 35.64,30.42L30.88,30.42Z" style="fill-rule:nonzero;"/>
    </g>
</svg>
