<?xml version="1.0" encoding="UTF-8" standalone="no"?>
<!DOCTYPE svg PUBLIC "-//W3C//DTD SVG 1.1//EN" "http://www.w3.org/Graphics/SVG/1.1/DTD/svg11.dtd">
<svg width="100%" height="100%" viewBox="0 0 150 151" version="1.1" xmlns="http://www.w3.org/2000/svg" xmlns:xlink="http://www.w3.org/1999/xlink" xml:space="preserve" xmlns:serif="http://www.serif.com/" style="fill-rule:evenodd;clip-rule:evenodd;stroke-linejoin:round;stroke-miterlimit:2;">
    <g id="Layer_2">
        <rect id="Layer_3" x="0" y="0.2" width="150" height="150" style="fill:none;fill-rule:nonzero;"/>
    </g>
    <g id="enphase">
        <path d="M75.2,135.1C51.7,135.1 30.2,121.5 19.9,100C18.1,96.2 19.6,91.8 23.5,90C27.1,88.2 31.7,90 33.2,93.6C41.1,110.5 58.3,120.7 77,120C94.1,119.2 109.5,109.3 116.9,93.4C118.7,89.6 123,88 126.9,89.8C130.7,91.6 132.3,95.9 130.5,99.8C120.8,120.5 100.6,133.8 77.5,134.9C77,135.1 76,135.1 75.2,135.1ZM127.9,80L22.5,80C18.4,80 15.1,76.7 15.1,72.6C15.1,68.5 18.4,65.2 22.5,65.2L120,65.2C116.4,43.2 97.2,26.6 74.2,26.6C56.8,26.6 41.2,36.1 33.3,51.4C31.5,55 26.9,56.5 23.3,54.5C19.7,52.7 18.2,48.1 20.2,44.5C30.7,24 51.4,11.5 74.2,11.5C108,11.5 135.4,38.9 135.4,72.7C135.4,74.7 134.6,76.5 133.1,78.1C131.8,79.3 130,80 127.9,80Z" style="fill-rule:nonzero;"/>
    </g>
</svg>
